<svg xmlns="http://www.w3.org/2000/svg" viewBox="0 0 48 48">
  <rect width="48" height="48" rx="10" fill="#faf5ec"/>
  <circle cx="15" cy="21" r="7" fill="#e8a93c"/>
  <g stroke="#e8a93c" stroke-width="2" stroke-linecap="round">
    <line x1="15" y1="9" x2="15" y2="11.5"/>
    <line x1="5.5" y1="12" x2="7.4" y2="13.9"/>
    <line x1="3" y1="21" x2="5.5" y2="21"/>
  </g>
  <g fill="#e8a93c">
    <path d="M30 9 l1.7 3.5 3.8 .6 -2.8 2.7 .7 3.8 -3.4 -1.8 -3.4 1.8 .7 -3.8 -2.8 -2.7 3.8 -.6 z"/>
    <path d="M40 19 l1.1 2.3 2.5 .4 -1.8 1.8 .4 2.5 -2.2 -1.2 -2.2 1.2 .4 -2.5 -1.8 -1.8 2.5 -.4 z" opacity="0.85"/>
    <circle cx="36" cy="7" r="1.5" opacity="0.7"/>
  </g>
  <path d="M4 44c7-10 19-12 26-7.5 5 3 9 5 14 4V44H4z" fill="#7d9b76"/>
</svg>
